<svg width="30" height="26" viewBox="0 0 30 26" fill="none" xmlns="http://www.w3.org/2000/svg" stroke="black">
<path d="M5 13.0862H7.5M22.5 13.0862H25M0.625 19.85V25.1108H1.25C2.49421 24.8728 3.74498 24.6873 5 24.5547M0.625 19.85H1.25C2.24456 19.85 3.19839 20.3251 3.90165 21.1708C4.60491 22.0164 5 23.1634 5 24.3593V24.5547M0.625 19.85V6.32231M5 24.5547C8.32515 24.1948 11.6615 24.0043 15 23.9835C17.6675 23.9835 21.6012 24.1744 25 24.5547M0.625 6.32231V1.06152H1.25C2.49422 1.29948 3.74499 1.48497 5 1.61766M0.625 6.32231H1.25C2.24456 6.32231 3.19839 5.84723 3.90165 5.00158C4.60491 4.15593 5 3.00899 5 1.81306V1.61766M25 24.5547C26.255 24.6872 27.5058 24.8727 28.75 25.1108H29.375V19.85M25 24.5547V24.3593C25 23.1634 25.3951 22.0164 26.0983 21.1708C26.8016 20.3251 27.7554 19.85 28.75 19.85H29.375M29.375 19.85V6.32231M29.375 6.32231V1.06152H28.75C27.5058 1.29966 26.255 1.48515 25 1.61766M29.375 6.32231H28.75C27.7554 6.32231 26.8016 5.84723 26.0983 5.00158C25.3951 4.15593 25 3.00899 25 1.81306V1.61766M25 1.61766C21.6749 1.9775 18.3385 2.16806 15 2.18883C11.6615 2.16806 8.32515 1.9775 5 1.61766M15 16.8439C14.1712 16.8439 13.3763 16.448 12.7903 15.7433C12.2042 15.0386 11.875 14.0828 11.875 13.0862C11.875 12.0896 12.2042 11.1338 12.7903 10.4291C13.3763 9.72437 14.1712 9.32847 15 9.32847C15.8288 9.32847 16.6237 9.72437 17.2097 10.4291C17.7958 11.1338 18.125 12.0896 18.125 13.0862C18.125 14.0828 17.7958 15.0386 17.2097 15.7433C16.6237 16.448 15.8288 16.8439 15 16.8439Z" stroke="white"/>
</svg>
